PathFileType	4	(X/Y/Z)	11_1_8_p0_0-507.trc
DataRate	CameraRate	NumFrames	NumMarkers	Units	OrigDataRate	OrigDataStartFrame	OrigNumFrames
60.0	60.0	4	27	m	60.0	0	508
Frame#	Time	RHip			RKnee			RAnkle			RBigToe			RSmallToe			RHeel			LHip			LKnee			LAnkle			LBigToe			LSmallToe			LHeel			Neck			Head			Nose			RShoulder			RElbow			RWrist			RThumb			RIndex			RPinky			LShoulder			LElbow			LWrist			LThumb			LIndex			LPinky			
		X1	Y1	Z1	X2	Y2	Z2	X3	Y3	Z3	X4	Y4	Z4	X5	Y5	Z5	X6	Y6	Z6	X7	Y7	Z7	X8	Y8	Z8	X9	Y9	Z9	X10	Y10	Z10	X11	Y11	Z11	X12	Y12	Z12	X13	Y13	Z13	X14	Y14	Z14	X15	Y15	Z15	X16	Y16	Z16	X17	Y17	Z17	X18	Y18	Z18	X19	Y19	Z19	X20	Y20	Z20	X21	Y21	Z21	X22	Y22	Z22	X23	Y23	Z23	X24	Y24	Z24	X25	Y25	Z25	X26	Y26	Z26	X27	Y27	Z27	
0	0.0	0.3642236722022752	0.608615734601282	0.6355985472014075	0.38474551494293135	0.6689403134041011	1.0813147377501757	0.3563204666253782	0.7390723281676355	1.474592402936504	0.35544020852529057	0.5705698764647859	1.4767775041953557	0.4176825091943439	0.6215422021524047	1.4793329941451634	0.3348366374976443	0.8272077962076931	1.547977529592906	0.1596898366696433	0.5668368859478058	0.6409577560925086	0.15366888819510566	0.6526930855318538	1.079708521717776	0.16572112547641707	0.6996086829627055	1.4521794924091385	0.1953010755753952	0.5278167252234577	1.456708091140569	0.1376918495508277	0.5697503834075683	1.4524398800047131	0.17753484202773978	0.7698288532535675	1.5100553388816953	0.2495516719489218	0.5770779526018244	0.07885774227617617	0.2752085097824417	0.509949972994115	-0.1722201744172818	0.27849115226244187	0.4789131711898427	-0.028859211040103278	0.39621834827479757	0.5415175281176619	0.15815774598251806	0.42865282481503175	0.5356497898528556	0.4349037705339299	0.3480515647599443	0.43629908897460007	0.6365921540275556	0.2729074963292163	0.40624261691715435	0.7104052391980021	0.2705147139981487	0.42299353713795745	0.7313678108314714	0.2800820257541959	0.4525670960624873	0.7427979782907795	0.1057653545911724	0.566089733533193	0.16685118670692636	0.10450619199165591	0.4879393755755891	0.4167587668250553	0.21523469860570932	0.3969236369125725	0.6039258111784233	0.2876196987261492	0.3868211066296494	0.671344681411864	0.28857351641153967	0.3990742394670165	0.7008568697374207	0.262806574573505	0.41776607178925035	0.7166902944306938
1	0.016666666666666666	0.3645735970439579	0.6112222276151016	0.6367034409875539	0.38081768597429044	0.6565676257219866	1.0822051691280283	0.35624966935653696	0.738713073033323	1.4744568527885167	0.355312087873657	0.5701841650679133	1.4769106607696298	0.41783624636179517	0.6045781550509585	1.4699847626015803	0.33396610965147594	0.82738344232482	1.5531846547784036	0.16028743847926616	0.5683405399903672	0.6457616020669259	0.1536091374820515	0.6525662168134344	1.0796328968797853	0.16620437306411626	0.6980495513196705	1.4553532481361051	0.19523452055194387	0.5282757553146323	1.4570335686187588	0.13824824616474685	0.5683846165081119	1.456221048421696	0.1773042332633216	0.7688966353948289	1.5095625127717902	0.24980432943544217	0.576581664085071	0.08231539828505426	0.2751995515026216	0.5097749068854179	-0.17217534402168097	0.2784939584697728	0.4790508946186766	-0.028835180637932136	0.39606625574654414	0.5413509685486357	0.16183058140541173	0.42813411842348836	0.5347225840922717	0.4308121481852305	0.34869862214098113	0.4378036834620817	0.6406685192654946	0.27390786354865954	0.4077000924018199	0.7159287474784191	0.2816873548242209	0.42408268916837	0.7309857934222261	0.2802268569347201	0.4526130231672272	0.7429272209980148	0.1059840409261373	0.5673040467798401	0.17018292930810838	0.1043501791818572	0.4881393080050726	0.4203130903501594	0.21914126829955513	0.3987646431212364	0.6042737806557945	0.28239900314140826	0.3992694934038846	0.6756059197071324	0.28858250475836356	0.39976321155461736	0.7013247147470513	0.2627523871597174	0.4175011447800564	0.7164236817424608
2	0.03333333333333333	0.36450851405222473	0.6113275118380445	0.6367945194834677	0.3808953202165853	0.6565179944277366	1.0820374248986395	0.3562079857043713	0.7389294271885792	1.474607613674308	0.3552997795013909	0.5702232600180281	1.4769260188404933	0.4178714365569057	0.6046957248787168	1.470111573882482	0.33401314038622304	0.8277359017957092	1.5535993731714617	0.16029599775729225	0.5683226192564369	0.6457597311980412	0.15147101603681112	0.6384779719959885	1.074561150423722	0.166143253822285	0.698150788353716	1.4553563251521908	0.19522141648583216	0.5284659288307813	1.4571195433932154	0.13814486455038233	0.5684464735956811	1.4562325678664068	0.1770330822990263	0.7688923296233137	1.5095214621928397	0.2498830910108483	0.5765867930033752	0.08231370646290992	0.2751835566996689	0.5099457419823819	-0.1721627418439697	0.27847586876229047	0.47909142484414385	-0.02885055522598342	0.39602223715314483	0.5412905055422085	0.16188214370894022	0.4280240339610752	0.5351898751880825	0.43095814015089007	0.3486930794278942	0.4377522966299223	0.6406843969442132	0.27408460131580914	0.4081408269040217	0.7163467074694102	0.2817470461188227	0.4243463421049047	0.730999563409745	0.2803045488223028	0.45257433691360655	0.7429578035666451	0.10573302703031891	0.5660163918083783	0.16693165658238615	0.10442711628007927	0.4880245589939466	0.4203077602341602	0.21920072566078	0.3987884402214503	0.6043105376538009	0.28249860567227414	0.3996413656643676	0.6757215693648954	0.28374485694746565	0.4118064550580575	0.7054603349410823	0.2628540164112484	0.4174910851746557	0.716695663679896
3	0.05	0.36437955503078995	0.6086612283926743	0.635894662895145	0.38173063798809154	0.655757523822597	1.0768405560231442	0.3562915241840789	0.7388290436073529	1.474456508045824	0.35533844592834984	0.5705431583644482	1.4770660496727686	0.41788112407861383	0.6050476922834417	1.4701422277961922	0.3339289592814399	0.8274345827906044	1.5531522525486117	0.16025295208854293	0.5684335411044824	0.6456585049022131	0.1536607317640553	0.6528450986382616	1.079823822568051	0.16573407315012967	0.6995505177780094	1.452120836674267	0.19531590116027983	0.5279213812548467	1.456802089812568	0.13844741866694665	0.5687946636722943	1.4563321377315688	0.17705054852854502	0.7693444299063015	1.5097491808176526	0.24980889530704412	0.5766482821157913	0.08228404940354847	0.2752016359115777	0.5100769825345935	-0.17214500201868	0.278481093183039	0.4790657422233713	-0.02892669940339213	0.39609350436232077	0.541520547025628	0.1618531348427207	0.4311637964887639	0.5470059942926794	0.43280020025718446	0.3487019919008265	0.43767263018150615	0.640495022567289	0.27384764357805486	0.40849203470392553	0.7160749574609835	0.2825059051602	0.42575372163658115	0.7357410546464744	0.28527533135374555	0.44078743383529434	0.7385899936002346	0.10593992372752518	0.5676147591715315	0.1702444016664112	0.1042307082357734	0.4884899830907806	0.42044992923309726	0.21922531969170203	0.3988961493400731	0.6043467892797305	0.2790163287497661	0.3976114813354967	0.6753864193580499	0.28507082902652686	0.3977989754548967	0.7009179242466599	0.26327927749636704	0.41711624939715736	0.7124752913110103
